<svg xmlns="http://www.w3.org/2000/svg" width="71.279" height="68.125" viewBox="0 0 71.279 68.125">
  <g id="Group_31" data-name="Group 31" transform="translate(-157.574 -254.902)">
    <path id="Path_137" data-name="Path 137" d="M216.718,296.37l10.8,10.8a.776.776,0,0,1-.547,1.325H214.212v12.759a.773.773,0,0,1-1.321.547l-.013-.013L200.1,309.01a27.1,27.1,0,0,1-12.011.337c-.586-.118-1.168-.254-1.741-.407l-12.794,12.8-.018.009a.77.77,0,0,1-1.321-.547V308.442H159.454a.774.774,0,0,1-.547-1.321l10.957-10.961a27.721,27.721,0,0,1-1.448-2.965,26.957,26.957,0,0,1,5.861-29.388h0a27.191,27.191,0,0,1,4.1-3.364,26.971,26.971,0,0,1,29.962,0,27.154,27.154,0,0,1,4.094,3.364l.044.044a26.9,26.9,0,0,1,5.813,8.717,26.969,26.969,0,0,1,0,20.627,26.071,26.071,0,0,1-1.566,3.175Zm-32.052,12.059-.21-.074-.07-.022.28.1Zm-.28-.1-.022-.009-.022-.009h0l-.026-.009-.022-.009-.022,0-.009,0-.013,0-.022-.009-.026-.009-.018,0v0l-.026-.009-.022-.009-.022-.009h0l-.017,0-.022-.009-.026-.009-.013,0-.009,0-.022-.009-.022-.009-.022-.009h0l-.018-.009-.022-.009-.026-.009h-.009l-.079-.031h0c-.262-.1-.516-.2-.765-.3a27.277,27.277,0,0,1-4.663-2.5,26.759,26.759,0,0,1-4.094-3.364l0,0-.035-.035-.022-.026-.013-.013-.039-.035,0-.009-.031-.031-.026-.026-.009-.009-.035-.039-.018-.013-.022-.022-.035-.035v0l-.035-.035-.022-.022-.013-.018-.039-.035,0-.009-.031-.031-.026-.026-.009-.013-.035-.035-.013-.013-.022-.026-.035-.035-.039-.039-.07-.074,0,0-.066-.074-.035-.039-.009-.009a27.275,27.275,0,0,1-1.907-2.327l-.022-.026-.013-.022-.009-.009-.022-.031q-.138-.19-.276-.394l-.022-.026-.009-.013-.013-.017-.022-.031-.013-.022-.009-.009-.017-.031-.022-.031h0l-.022-.031-.022-.031,0,0-.013-.026-.022-.03-.013-.013-.009-.017-.022-.031-.013-.022,0-.009-.022-.031-.022-.031-.022-.031-.017-.031,0,0-.017-.026-.017-.031-.013-.013-.009-.017-.022-.031-.013-.022,0-.009-.022-.031-.018-.031h0l-.017-.031-.022-.031-9.369,9.369h11.665a.773.773,0,0,1,.774.774v11.665l10.9-10.9-.28-.1Zm-.757-1.946c.267.114.534.219.8.315l.022.009.022.009.018.009h0l.017,0,.105.039.017.009h0l.017.009.022,0,.022.009.009,0,.013,0,.017.009.022,0,.017.009h0l.018.009.022,0,.022.009.009,0,.013,0,.018,0,.022.009.022.009.022,0,.017.009.022,0,.013,0,.009,0,.017.009.017,0,.022.009h0l.017,0,.017.009.022.009.017,0h0l.017.009.022,0,.018.009.013,0h.009l.022.009.017.009.022,0h0l.022.009.022,0,.018.009.013,0h.009l.022.009.018.009.022,0,.079.026h0c.258.083.521.162.8.241l.061.022h0q.991.282,2.008.485a25.771,25.771,0,0,0,11.7-.415l.1-.026.013,0,.083-.022.061-.018.039-.009.1-.031.013,0,.083-.026.1-.031.1-.026.018,0,.083-.026a25.363,25.363,0,0,0,5.192-2.27l.088-.052.092-.048.066-.044.022-.009.35-.214.031-.018.057-.035.074-.048.013-.009.087-.052.031-.022.057-.035.074-.048.013-.009.083-.057.035-.022.052-.031.079-.052.009,0,.083-.057.039-.026.044-.031.083-.057h0l.083-.061.044-.026.044-.031.083-.057h0l.083-.061.044-.031.039-.026.083-.061h0l.083-.061.044-.031.039-.026.083-.061,0,0,.074-.057.048-.035.035-.026.083-.061.009-.009.074-.052.048-.044.031-.022.083-.061.013-.009.122-.1.026-.022.079-.061.017-.013.066-.053.057-.044.022-.022.079-.061.017-.017.066-.048.057-.048.022-.017.1-.083.061-.048.061-.052.017-.013.079-.066.022-.017.052-.052.066-.053.013-.013.079-.066.022-.022.057-.048.061-.057.092-.079.026-.026.048-.044.066-.057.009-.009.079-.07.026-.026.048-.044.07-.061,0-.009.074-.07.035-.031.044-.039.066-.065.009,0,.07-.07.035-.035.039-.039.074-.066v0l.074-.07.035-.039.039-.035.07-.074a25.313,25.313,0,0,0,2.021-2.27,25.754,25.754,0,0,0,1.736-2.5l.013-.022a25.4,25.4,0,0,0,1.754-3.46,25.072,25.072,0,0,0,1.439-4.759,25.407,25.407,0,0,0-3.788-19.092,25.758,25.758,0,0,0-3.132-3.819l-.044-.039a25.432,25.432,0,0,0-8.254-5.524,25.161,25.161,0,0,0-4.759-1.439,25.667,25.667,0,0,0-9.938,0,25.062,25.062,0,0,0-4.759,1.439,25.432,25.432,0,0,0-8.254,5.524h0a25.822,25.822,0,0,0-3.171,3.858,25.53,25.53,0,0,0-2.349,4.4,25.223,25.223,0,0,0-1.443,4.763,25.872,25.872,0,0,0,0,9.933,25.087,25.087,0,0,0,1.443,4.759,25.9,25.9,0,0,0,1.636,3.267l.009.013,0,0,.026.039.009.022.013.022.026.044h0l.026.044.018.022.009.017.026.044,0,.009.022.031.018.035.009.009.026.044.009.013.017.031.022.035,0,0,.026.044.009.017.017.022.026.044h0l.026.039.018.026.009.017.026.044,0,0,.022.035.022.031,0,.009.031.044,0,.009.022.031.022.039,0,0,.026.039.013.017.013.026.026.039h0l.031.044.013.022.013.017.026.039,0,.009.022.031.022.031.009.013.026.039.009.013.022.026.022.039,0,0,.026.039.018.017.013.026.026.039h0l.031.039.083.123.022.031.066.087.026.039h0l.088.123,0,0,.083.114.009.013c.494.669,1.019,1.308,1.575,1.929l.009.009.192.21.018.022.017.013.03.039,0,0,.031.031.026.026.1.114,0,0,.035.035.013.017.022.017.035.039h0l.035.035.017.022.018.013.031.035.009.009.031.026.022.026.013.013.031.035.013.009.026.026.026.031.009,0,.035.035.013.017.018.017.039.035,0,0h0a25.368,25.368,0,0,0,3.858,3.171,25.689,25.689,0,0,0,4.4,2.349Zm-8.818-28.448a.79.79,0,0,0-.573.262.776.776,0,0,0,.074,1.094l9.64,8.5-2.808,12.5a.794.794,0,0,0,.079.6.771.771,0,0,0,1.058.271l11.062-6.543,11.057,6.552h0a.773.773,0,0,0,1.146-.831l-2.8-12.54,9.653-8.49,0,0a.772.772,0,0,0-.437-1.347l-12.789-1.212-5.1-11.8,0,0a.77.77,0,0,0-1.417,0l-5.1,11.8-12.737,1.194Zm13.332.3-11.469,1.076,8.639,7.615h0a.783.783,0,0,1,.245.752l-2.524,11.241,9.911-5.861a.757.757,0,0,1,.792,0l9.916,5.874-2.5-11.18a.771.771,0,0,1,.232-.814l8.647-7.611-11.412-1.08a.769.769,0,0,1-.7-.468L193.357,267.2l-4.566,10.55a.767.767,0,0,1-.647.49Zm20.977,26.532c-.144.1-.293.21-.442.315h0l-.044.035-.048.026c-.149.1-.3.206-.451.306l-.052.035-.039.026-.092.057-.009,0-.083.057-.092.057-.092.057-.009.009-.087.053-.057.035-.035.022-.092.057-.013.009-.083.048-.061.039-.031.018-.1.057-.013.009-.079.048-.066.035-.031.017-.074.044-.039.022-.035.022-.079.044-.031.018-.044.026-.074.044-.026.013-.052.031-.074.039-.017.009-.061.035-.074.039-.009.009-.07.035-.079.039h0l-.074.044-.07.035-.009,0-.079.044-.061.031-.013.009-.079.039-.057.026-.022.013-.079.039-.048.026-.031.013-.079.039-.039.022-.039.018-.079.039-.031.018-.048.022-.079.039-.026.009-.052.026-.079.039-.017.009-.061.026-.079.039-.013,0-.07.035-.079.035h0l-.079.035-.074.035-.009,0-.079.035-.066.031-.013,0-.083.035-.057.026-.022.009-.083.035-.079.035-.083.035-.2.083-.048.017-.079.035-.022.009-.061.026-.166.066-.074.026,0,0-.083.031c-.442.175-.884.332-1.334.481l10.869,10.874V307.72a.776.776,0,0,1,.774-.774H225.1l-9.22-9.225c-.411.63-.853,1.238-1.312,1.824a26.828,26.828,0,0,1-2.143,2.414l-.074.074-.039.039-.039.039-.074.074,0,0-.074.07-.044.044-.035.031-.079.079,0,0-.074.07-.044.044-.035.031-.079.074-.079.074-.052.044-.031.031-.079.07-.013.013-.066.061-.057.048-.026.022-.083.074-.013.013-.066.057-.057.052-.026.022-.083.07-.013.018-.066.053-.061.052-.022.017-.083.07-.022.017-.061.052-.066.053-.017.018-.087.07-.022.022-.061.048-.083.07-.083.066-.087.07-.07.057-.013.009-.087.07-.083.066-.074.057-.013.009-.088.066-.031.026-.057.039-.175.136-.035.022-.048.039-.179.131-.035.026Z" transform="translate(0 0)" fill="#30383b" stroke="#79cbca" stroke-width="2" fill-rule="evenodd"/>
  </g>
</svg>
