<svg xmlns="http://www.w3.org/2000/svg"  viewBox="0 0 64 64"><defs fill="#337ea9" /><path  d="m50,16v-6h-3.5l-7.5,14H14.54l-1.7-3.4c-.55-1.11-.85-2.35-.85-3.58,0-4.42,3.6-8.02,8.02-8.02h4.48v-5h-4.48c-7.18,0-13.02,5.84-13.02,13.02,0,2.01.48,4.02,1.37,5.82l1.63,3.25v3.28c0,2.21.72,3.63,2.25,5.23,1.19,1.24,1.75,2.82,1.75,4.87v.53l-4,6,.51,1.52c1.1,3.29,2.38,5.36,4.83,7.82l.66.66h6v-3c0-1.85-1.15-3-3-3h-1.75l-1.25-2.5,10-7.5h10v8l.29,1.44c.52,2.6,1.41,4.26,3.28,6.13l.43.43h6v-3c0-1.85-1.15-3-3-3h-1v-10l5.88-5.88c1.52-1.52,2.12-2.98,2.12-5.12,0-1.85,1.15-3,3-3h3l2-4-8-6Z" fill="#337ea9" /></svg>