<svg xmlns="http://www.w3.org/2000/svg" width="93.432" height="60.283" viewBox="0 0 93.432 60.283">
  <path id="Path_140" data-name="Path 140" d="M14.139,220.027h86.667a1.23,1.23,0,0,0,.874-.367,1.214,1.214,0,0,0,.362-.869v-1.773a1.225,1.225,0,0,0-.362-.874l-.03-.03a1.233,1.233,0,0,0-.844-.331H14.139a1.235,1.235,0,0,0-1.235,1.235v1.773a1.247,1.247,0,0,0,.362.874v-.005a1.239,1.239,0,0,0,.874.367ZM20.6,162.391H94.343a2.9,2.9,0,0,1,2.888,2.888v48.858h3.576a2.872,2.872,0,0,1,1.984.8l.055.05a2.857,2.857,0,0,1,.844,2.034v1.773a2.889,2.889,0,0,1-2.883,2.883H14.139a2.849,2.849,0,0,1-2.034-.849h0a2.879,2.879,0,0,1-.849-2.034v-1.773a2.87,2.87,0,0,1,.849-2.034h0a2.879,2.879,0,0,1,2.034-.849h3.581V165.279a2.886,2.886,0,0,1,.844-2.039h0a2.882,2.882,0,0,1,2.039-.849Zm73.741,1.652H20.6a1.234,1.234,0,0,0-.874.362h0a1.237,1.237,0,0,0-.362.874v48.858H95.578V165.279a1.235,1.235,0,0,0-1.235-1.235ZM43.6,218.591a.824.824,0,0,1,0-1.647H70.8a.824.824,0,1,1,0,1.647ZM22.711,166.353a.824.824,0,0,0-.824.824V211a.825.825,0,0,0,.824.829H92.239a.825.825,0,0,0,.824-.829V167.177a.824.824,0,0,0-.824-.824ZM91.415,168H23.529v42.174H91.415Z" transform="translate(-10.756 -161.891)" fill="#77a1d3" stroke="#77a1d3" stroke-width="1" fill-rule="evenodd"/>
</svg>
