<svg xmlns="http://www.w3.org/2000/svg"  viewBox="0 0 64 64"><defs fill="#D44C47" /><path  d="m56,22.83h0c0,5.62-3.17,10.75-8.2,13.27l-13.75,6.88c-1.35.67-2.83,1.02-4.34,1.02h0c-1.21,0-2.35-.23-3.42-.63l-1.95,1.95c-1.68,1.68-2.34,3.29-2.34,5.66v3.03c0,2.47-1.53,4-4,4s-4-1.53-4-4v-4h-4c-2.47,0-4-1.53-4-4s1.53-4,4-4h3.03c2.37,0,3.98-.67,5.66-2.34l1.95-1.95c-.4-1.07-.63-2.21-.63-3.42h0c0-1.51.35-2.99,1.02-4.34l6.88-13.75c2.51-5.03,7.65-8.2,13.27-8.2,8.19,0,14.83,6.64,14.83,14.83Z" fill="#D44C47" /></svg>