<svg xmlns="http://www.w3.org/2000/svg" width="69.733" height="69.729" viewBox="0 0 69.733 69.729">
  <path id="Path_138" data-name="Path 138" d="M165.913,364.54a21.246,21.246,0,1,0,15.021,6.223,21.2,21.2,0,0,0-15.021-6.223ZM152.27,407.853a.78.78,0,1,1,1.349.782l-3.829,6.633a.78.78,0,0,1-1.349-.782l3.829-6.633Zm-9.208-9.776a.78.78,0,1,1,.782,1.35l-6.628,3.829a.78.78,0,1,1-.782-1.349l6.628-3.829ZM139.981,385a.784.784,0,1,1,0,1.569h-7.653a.784.784,0,0,1,0-1.569Zm3.858-12.856a.777.777,0,1,1-.772,1.349l-6.633-3.824a.781.781,0,0,1,.777-1.354l6.628,3.829Zm9.78-9.208a.78.78,0,1,1-1.349.782l-3.829-6.628a.78.78,0,0,1,.286-1.068.771.771,0,0,1,1.063.286l3.829,6.628Zm11.511,48.777a.782.782,0,0,1,1.564,0v7.658a.782.782,0,0,1-1.564,0v-7.658Zm13.07-3.08a.782.782,0,0,1,1.354-.782l3.829,6.633a.782.782,0,0,1-1.354.782l-3.829-6.633Zm9.775-9.208a.78.78,0,0,1,.782-1.35l6.633,3.829a.78.78,0,1,1-.782,1.349l-6.633-3.829Zm3.862-12.856a.784.784,0,0,1,0-1.569H199.5a.784.784,0,0,1,0,1.569ZM188.763,373.5a.781.781,0,1,1-.787-1.349l6.633-3.829a.78.78,0,1,1,.782,1.349l-6.628,3.829Zm-9.208-9.775a.782.782,0,0,1-1.354-.782l3.829-6.628a.781.781,0,0,1,1.354.777l-3.829,6.633Zm-12.861-3.863a.782.782,0,1,1-1.564,0V352.2a.782.782,0,1,1,1.564,0v7.653Zm-16.914,9.8a22.811,22.811,0,1,1-6.681,16.127A22.76,22.76,0,0,1,149.781,369.657Z" transform="translate(-131.046 -350.922)" fill="#30383b" stroke="#77a1d3" stroke-width="1" fill-rule="evenodd"/>
</svg>
