<svg xmlns="http://www.w3.org/2000/svg" width="90.619" height="49.426" viewBox="0 0 90.619 49.426">
  <path id="Path_139" data-name="Path 139" d="M420.7,223.413l.1.113h.013l.188.276a3.15,3.15,0,0,1,.514,1.73v30.454a3.155,3.155,0,0,1-.928,2.244,3.208,3.208,0,0,1-2.245.928H391.6a2.835,2.835,0,0,1-.865-.126,2.7,2.7,0,0,1-.8-.363l-8.112-5.053a1,1,0,0,0-.339-.15,1.18,1.18,0,0,0-.376-.05h-8.826a1.181,1.181,0,0,0-.376.05,1,1,0,0,0-.339.15l-8.112,5.053a2.7,2.7,0,0,1-.8.363,2.835,2.835,0,0,1-.865.126h-26.73a3.177,3.177,0,0,1-2.232-.928h0a3.154,3.154,0,0,1-.928-2.244V225.532a3.141,3.141,0,0,1,.5-1.73l.2-.276h0l.113-.126a3.236,3.236,0,0,1,1.078-.764L360.5,210.863h0l.188-.062a.9.9,0,0,1,1.065.7l2.432,11.648h25.025l2.42-11.6.062-.226a.911.911,0,0,1,1.191-.464l26.731,11.773a3.09,3.09,0,0,1,1.078.777Zm-1.1,1.542H333.81a1.433,1.433,0,0,0-.113.577v30.454a1.4,1.4,0,0,0,.388.965h.013a1.3,1.3,0,0,0,.953.389h26.73a1.749,1.749,0,0,0,.376-.037,1.41,1.41,0,0,0,.339-.163l8.112-5.053a2.728,2.728,0,0,1,.8-.364,2.83,2.83,0,0,1,.865-.125H381.1a2.829,2.829,0,0,1,.865.125,2.887,2.887,0,0,1,.8.364l8.112,5.053a1.409,1.409,0,0,0,.339.163,1.834,1.834,0,0,0,.376.037h26.742a1.345,1.345,0,0,0,.966-.389,1.41,1.41,0,0,0,.4-.965V225.532a1.684,1.684,0,0,0-.113-.577Zm-82.51-1.805h25.263l-2.132-10.193L337.083,223.15Zm53.974,0h25.251l-23.132-10.193-2.119,10.193Zm-31.281,28.962a3.368,3.368,0,0,0,.878-.113,3.521,3.521,0,0,0,.8-.364l9.429-5.893a3.1,3.1,0,0,0,1.1-1.141h0a3.237,3.237,0,0,0,.389-1.542v-9.7a3.126,3.126,0,0,0-.928-2.232h0a3.147,3.147,0,0,0-2.232-.928H342.1a3.1,3.1,0,0,0-2.231.928h-.012a3.189,3.189,0,0,0-.915,2.232v15.6a3.18,3.18,0,0,0,.865,2.182l.05.05a3.154,3.154,0,0,0,2.244.928ZM342.1,250.306h17.678a1.19,1.19,0,0,0,.376-.05,1.414,1.414,0,0,0,.351-.151l9.428-5.893a1.27,1.27,0,0,0,.477-.489h0a1.409,1.409,0,0,0,.163-.665v-9.7a1.306,1.306,0,0,0-.4-.953h0a1.306,1.306,0,0,0-.953-.4H342.1a1.348,1.348,0,0,0-1.354,1.354v15.6a1.439,1.439,0,0,0,.351.927l.037.025a1.355,1.355,0,0,0,.965.4Zm51.517,0h17.691a1.371,1.371,0,0,0,1.354-1.354v-15.6a1.305,1.305,0,0,0-.4-.953l-.025-.037a1.386,1.386,0,0,0-.927-.363H384.186a1.348,1.348,0,0,0-1.354,1.354v9.7a1.406,1.406,0,0,0,.151.665h0a1.483,1.483,0,0,0,.477.489l9.441,5.893a1.343,1.343,0,0,0,.339.151,1.19,1.19,0,0,0,.376.05Zm17.691,1.805a3.168,3.168,0,0,0,3.159-3.159v-15.6a3.124,3.124,0,0,0-.928-2.232l-.05-.063a3.181,3.181,0,0,0-2.182-.865H384.186a3.1,3.1,0,0,0-2.231.928h-.012a3.2,3.2,0,0,0-.928,2.232v9.7a3.111,3.111,0,0,0,.4,1.542h0a3.067,3.067,0,0,0,1.09,1.141l9.441,5.893a2.973,2.973,0,0,0,1.668.477Z" transform="translate(-331.392 -210.232)" fill="#77a1d3" stroke="#77a1d3" stroke-width="1" fill-rule="evenodd"/>
</svg>
