<svg xmlns="http://www.w3.org/2000/svg" xmlns:xlink="http://www.w3.org/1999/xlink" width="308.345" height="176.988" viewBox="0 0 308.345 176.988">
  <defs>
    <filter id="Path_14" x="0" y="0" width="308.345" height="176.988" filterUnits="userSpaceOnUse">
      <feOffset dy="3" input="SourceAlpha"/>
      <feGaussianBlur stdDeviation="10" result="blur"/>
      <feFlood flood-opacity="0.114"/>
      <feComposite operator="in" in2="blur"/>
      <feComposite in="SourceGraphic"/>
    </filter>
  </defs>
  <g id="Group_11" data-name="Group 11" transform="translate(-258.406 -52.3)">
    <path id="Path_15" data-name="Path 15" d="M-124.173-4.453v-21.57a4.266,4.266,0,0,1,1.322-3.145,4.334,4.334,0,0,1,3.159-1.308,4.288,4.288,0,0,1,3.145,1.308,4.288,4.288,0,0,1,1.308,3.145v.918a11.135,11.135,0,0,1,4.731-5.817,3.514,3.514,0,0,1,1.7-.473,3.519,3.519,0,0,1,1.837.557,3.4,3.4,0,0,1,1.753,3.089v.863a4.673,4.673,0,0,1-.988,2.908,4.928,4.928,0,0,1-2.574,1.767,8.779,8.779,0,0,0-2.282,1.044,9.578,9.578,0,0,0-2.073,1.879,8.336,8.336,0,0,0-1.573,3.145,15.75,15.75,0,0,0-.529,4.286v7.4a4.288,4.288,0,0,1-1.308,3.145A4.288,4.288,0,0,1-119.692,0a4.334,4.334,0,0,1-3.159-1.308A4.266,4.266,0,0,1-124.173-4.453Zm23.351-10.381v-.111a15.047,15.047,0,0,1,1.225-6,15.065,15.065,0,0,1,3.34-4.912,15.773,15.773,0,0,1,5.121-3.284,16.8,16.8,0,0,1,6.4-1.225,16.532,16.532,0,0,1,8.183,2.046,14.93,14.93,0,0,1,5.733,5.552,14.947,14.947,0,0,1,2.06,7.709v.111a15.047,15.047,0,0,1-1.225,6,15.225,15.225,0,0,1-3.34,4.926,15.653,15.653,0,0,1-5.121,3.3A16.8,16.8,0,0,1-84.846.5a16.532,16.532,0,0,1-8.183-2.046,14.9,14.9,0,0,1-5.733-5.566A15.021,15.021,0,0,1-100.822-14.834Zm8.294-.111a8.266,8.266,0,0,0,2.2,5.775,7.243,7.243,0,0,0,5.594,2.407A7.17,7.17,0,0,0-79.126-9.1a8.266,8.266,0,0,0,2.1-5.733v-.111a8.237,8.237,0,0,0-2.213-5.775,7.286,7.286,0,0,0-5.608-2.407,7.128,7.128,0,0,0-5.594,2.338,8.3,8.3,0,0,0-2.087,5.733Zm28.917-.083v-.111a15.97,15.97,0,0,1,1.2-6.137,15.739,15.739,0,0,1,3.284-5.052,15.2,15.2,0,0,1,5.065-3.4,16.342,16.342,0,0,1,6.4-1.252,16.371,16.371,0,0,1,8.6,2.115,3.6,3.6,0,0,1,1.781,2.783q.028.278.028.557a3.675,3.675,0,0,1-1.058,2.616,3.7,3.7,0,0,1-2.366,1.2,2.016,2.016,0,0,1-.473,0,4.04,4.04,0,0,1-2.143-.612,8.231,8.231,0,0,0-4.425-1.225,6.676,6.676,0,0,0-5.274,2.435,8.666,8.666,0,0,0-2.1,5.859v.111a8.685,8.685,0,0,0,2.129,5.97,7.093,7.093,0,0,0,5.58,2.407A8.485,8.485,0,0,0-42.764-8.1a3.6,3.6,0,0,1,2.06-.64,2.2,2.2,0,0,1,.362.028,3.387,3.387,0,0,1,2.227,1.03l.056.083A3.516,3.516,0,0,1-37-5.065a3.192,3.192,0,0,1-.028.39,3.562,3.562,0,0,1-1.559,2.7A15.6,15.6,0,0,1-47.8.668a15.905,15.905,0,0,1-8.113-2.1,15.029,15.029,0,0,1-5.664-5.692A15.771,15.771,0,0,1-63.61-15.029ZM-32.438-9.3v-.111a8.46,8.46,0,0,1,3.312-7.264q3.312-2.449,8.934-2.449a24.863,24.863,0,0,1,3.98.334,3.416,3.416,0,0,0,.612.056,2.346,2.346,0,0,0,1.308-.362,1.7,1.7,0,0,0,.918-1.28,2.258,2.258,0,0,0-.557-1.614,6.886,6.886,0,0,0-5.344-1.948,21.833,21.833,0,0,0-5.2.64,3.541,3.541,0,0,1-.946.139,3.414,3.414,0,0,1-1.67-.445,3.443,3.443,0,0,1-1.67-2.032,3.6,3.6,0,0,1-.195-1.141,4.009,4.009,0,0,1,.417-1.614,3.379,3.379,0,0,1,2.115-1.781,28.236,28.236,0,0,1,8.377-1.141q6.847,0,10.27,3.423Q-4.495-24.6-4.495-18.2V-4.425A3.755,3.755,0,0,1-5.608-1.684,3.686,3.686,0,0,1-8.336-.557h-1.2A2.889,2.889,0,0,1-12.26-2.143a1.2,1.2,0,0,0-.932-.612,1.455,1.455,0,0,0-1.127.306A11.907,11.907,0,0,1-22,0,11.271,11.271,0,0,1-29.46-2.477,8.391,8.391,0,0,1-32.438-9.3Zm8.906-.668a3.428,3.428,0,0,0,1.225,2.895,4,4,0,0,0,2.533.779,4.752,4.752,0,0,0,.724-.056A6.735,6.735,0,0,0-15.21-7.863a5.266,5.266,0,0,0,1.781-3.075,2.3,2.3,0,0,0,.056-.5,1.986,1.986,0,0,0-1.085-1.753,6.314,6.314,0,0,0-3.4-.751,7.456,7.456,0,0,0-4.189,1A3.354,3.354,0,0,0-23.532-9.964Zm25.8-13.888a3.613,3.613,0,0,1-1.058-2.616,3.567,3.567,0,0,1,1.058-2.6A2.974,2.974,0,0,1,4.3-30.142a1.758,1.758,0,0,0,1.266-.529,1.691,1.691,0,0,0,.543-1.252q0-5.065,2.421-7.487Q10.924-41.8,15.516-41.8a24.887,24.887,0,0,1,3.089.195,3.33,3.33,0,0,1,2.171,1.169,3.472,3.472,0,0,1,.863,2.338,3.315,3.315,0,0,1-1.113,2.533,3.5,3.5,0,0,1-2.533,1.03h-.529a2.683,2.683,0,0,0-1.962.751,2.476,2.476,0,0,0-.765,1.837,1.731,1.731,0,0,0,.529,1.294,1.768,1.768,0,0,0,1.28.515h1.642a3.543,3.543,0,0,1,2.6,1.072,3.543,3.543,0,0,1,1.072,2.6,3.589,3.589,0,0,1-1.072,2.616,3.52,3.52,0,0,1-2.6,1.085H16.546a1.744,1.744,0,0,0-1.28.529,1.744,1.744,0,0,0-.529,1.28v5.65h-.028V-4.314a4.141,4.141,0,0,1-1.266,3.062A4.178,4.178,0,0,1,10.4,0,4.132,4.132,0,0,1,7.362-1.252,4.164,4.164,0,0,1,6.109-4.314v-16.7a1.792,1.792,0,0,0-.543-1.239A1.721,1.721,0,0,0,4.3-22.767,2.962,2.962,0,0,1,2.268-23.852ZM27.54-14.834v-.111a15.047,15.047,0,0,1,1.225-6,15.065,15.065,0,0,1,3.34-4.912,15.773,15.773,0,0,1,5.121-3.284,16.8,16.8,0,0,1,6.4-1.225,16.532,16.532,0,0,1,8.183,2.046,14.93,14.93,0,0,1,5.733,5.552,14.947,14.947,0,0,1,2.06,7.709v.111a15.047,15.047,0,0,1-1.225,6,15.225,15.225,0,0,1-3.34,4.926,15.653,15.653,0,0,1-5.121,3.3A16.8,16.8,0,0,1,43.515.5a16.532,16.532,0,0,1-8.183-2.046A14.9,14.9,0,0,1,29.6-7.111,15.021,15.021,0,0,1,27.54-14.834Zm8.294-.111a8.266,8.266,0,0,0,2.2,5.775,7.243,7.243,0,0,0,5.594,2.407A7.17,7.17,0,0,0,49.235-9.1a8.266,8.266,0,0,0,2.1-5.733v-.111a8.237,8.237,0,0,0-2.213-5.775,7.286,7.286,0,0,0-5.608-2.407,7.128,7.128,0,0,0-5.594,2.338,8.3,8.3,0,0,0-2.087,5.733ZM65.308-4.453v-21.57a4.266,4.266,0,0,1,1.322-3.145,4.334,4.334,0,0,1,3.159-1.308,4.288,4.288,0,0,1,3.145,1.308,4.288,4.288,0,0,1,1.308,3.145v.918a11.135,11.135,0,0,1,4.731-5.817,3.514,3.514,0,0,1,1.7-.473,3.519,3.519,0,0,1,1.837.557,3.4,3.4,0,0,1,1.753,3.089v.863a4.673,4.673,0,0,1-.988,2.908A4.928,4.928,0,0,1,80.7-22.21a8.779,8.779,0,0,0-2.282,1.044,9.578,9.578,0,0,0-2.073,1.879,8.336,8.336,0,0,0-1.573,3.145,15.75,15.75,0,0,0-.529,4.286v7.4a4.288,4.288,0,0,1-1.308,3.145A4.288,4.288,0,0,1,69.789,0,4.334,4.334,0,0,1,66.63-1.308,4.266,4.266,0,0,1,65.308-4.453ZM89.717-24.1a3.613,3.613,0,0,1-1.058-2.616,3.567,3.567,0,0,1,1.058-2.6,2.974,2.974,0,0,1,2.032-1.072,1.722,1.722,0,0,0,1.28-.543,1.79,1.79,0,0,0,.529-1.294v-4.982a4.132,4.132,0,0,1,1.252-3.034A4.164,4.164,0,0,1,97.871-41.5a4.164,4.164,0,0,1,3.062,1.252,4.132,4.132,0,0,1,1.252,3.034v4.982a1.79,1.79,0,0,0,.529,1.294,1.722,1.722,0,0,0,1.28.543h1.642a3.543,3.543,0,0,1,2.6,1.072,3.543,3.543,0,0,1,1.072,2.6,3.543,3.543,0,0,1-1.072,2.6,3.543,3.543,0,0,1-2.6,1.072h-1.642a1.722,1.722,0,0,0-1.28.543,1.79,1.79,0,0,0-.529,1.294v11.161q0,2.95,2.755,2.95h.724a3.574,3.574,0,0,1,2.421.974A3.433,3.433,0,0,1,109.2-3.535a3.582,3.582,0,0,1-.64,2.073,3.312,3.312,0,0,1-1.7,1.294A14.356,14.356,0,0,1,102.408.5,13.22,13.22,0,0,1,98.79.056a7.433,7.433,0,0,1-2.769-1.461A6.255,6.255,0,0,1,94.184-4.23a13.529,13.529,0,0,1-.626-4.4v-12.58a1.79,1.79,0,0,0-.529-1.294,1.722,1.722,0,0,0-1.28-.543A2.988,2.988,0,0,1,89.717-24.1ZM116.324-1.392a4.366,4.366,0,0,1-1.336-3.2,4.366,4.366,0,0,1,1.336-3.2,4.366,4.366,0,0,1,3.2-1.336h.111a4.366,4.366,0,0,1,3.2,1.336,4.366,4.366,0,0,1,1.336,3.2,4.366,4.366,0,0,1-1.336,3.2,4.366,4.366,0,0,1-3.2,1.336h-.111A4.366,4.366,0,0,1,116.324-1.392ZM-90.552,50.859v-.111a18.887,18.887,0,0,1,1.141-6.721,13.81,13.81,0,0,1,3.089-4.968A13.776,13.776,0,0,1-81.9,36.067a13.269,13.269,0,0,1,5.2-1.044,12.007,12.007,0,0,1,3.924.612,4.379,4.379,0,0,0,1.336.223A3.84,3.84,0,0,0-68.982,35a4.2,4.2,0,0,0,1.753-3.507V29.317a4.787,4.787,0,0,1,1.239-3.409,4.043,4.043,0,0,1,3.075-1.322,4.164,4.164,0,0,1,3.062,1.252A4.164,4.164,0,0,1-58.6,28.9V61.463a4.459,4.459,0,0,1-1.336,3.229A4.1,4.1,0,0,1-62.97,66h-.139a3.848,3.848,0,0,1-2.728-1.252,3.209,3.209,0,0,0-1.948-1,2.569,2.569,0,0,0-.362-.028,2.655,2.655,0,0,0-1.67.584,10.856,10.856,0,0,1-6.875,2.254,13.1,13.1,0,0,1-5.163-1.044,13.93,13.93,0,0,1-4.411-2.978,13.95,13.95,0,0,1-3.117-4.968A18.514,18.514,0,0,1-90.552,50.859Zm8.628,0a8.555,8.555,0,0,0,2.157,6.04,6.9,6.9,0,0,0,5.274,2.338A6.83,6.83,0,0,0-69.26,56.9a8.589,8.589,0,0,0,2.143-6.04v-.111a8.64,8.64,0,0,0-2.143-6.053,6.812,6.812,0,0,0-5.232-2.352,6.9,6.9,0,0,0-5.274,2.338,8.594,8.594,0,0,0-2.157,6.067Zm28.973-.195v-.111A16.342,16.342,0,0,1-51.1,42.83a14.389,14.389,0,0,1,5.232-5.622,14.077,14.077,0,0,1,7.584-2.1,15.466,15.466,0,0,1,5.441.918,12.106,12.106,0,0,1,4.175,2.547A14.446,14.446,0,0,1-25.842,42.3a16.8,16.8,0,0,1,1.614,4.634,8.318,8.318,0,0,1,.139,1.141,5.132,5.132,0,0,1-1.28,3.368,5.221,5.221,0,0,1-4.2,1.976H-40.649a2.335,2.335,0,0,0-1.781.779,2.263,2.263,0,0,0-.668,1.559,2.565,2.565,0,0,0,.807,1.809,7.148,7.148,0,0,0,4.954,1.67,9.345,9.345,0,0,0,5.26-1.5,3.183,3.183,0,0,1,1.781-.529h.306a3.367,3.367,0,0,1,1.976.863l.056.056A3.2,3.2,0,0,1-26.844,60.6a3.019,3.019,0,0,1-1.28,2.561A15.249,15.249,0,0,1-37.448,66a16.32,16.32,0,0,1-7.946-1.92,14.007,14.007,0,0,1-5.539-5.441A15.746,15.746,0,0,1-52.95,50.665ZM-42.9,46.072q.5,1.7,3.117,1.837h3.2q2.7,0,3.2-1.7a2.363,2.363,0,0,0,.111-.7,3.477,3.477,0,0,0-.974-2.227,5.392,5.392,0,0,0-4.008-1.865,4.733,4.733,0,0,0-3.813,1.726,3.424,3.424,0,0,0-.946,2.2A2.449,2.449,0,0,0-42.9,46.072Zm24.631,15.085a4.485,4.485,0,0,1-.111-.974,3.511,3.511,0,0,1,.557-1.893,3.492,3.492,0,0,1,2.115-1.531,3.632,3.632,0,0,1,.974-.139,3.219,3.219,0,0,1,1.586.417,14.259,14.259,0,0,0,6.763,1.948q3.312,0,3.312-1.976V56.9a1.42,1.42,0,0,0-.334-.932A3.157,3.157,0,0,0-4.537,55.2q-.793-.362-1.447-.584T-7.946,54q-.362-.111-1.141-.334a21.514,21.514,0,0,1-4.008-1.559,13.159,13.159,0,0,1-2.658-1.753,6.968,6.968,0,0,1-1.531-1.948,7.173,7.173,0,0,1-.738-1.976,10.757,10.757,0,0,1-.167-1.976v-.111A8.856,8.856,0,0,1-15.1,37.305,11.942,11.942,0,0,1-7,34.633a20.209,20.209,0,0,1,7.988,1.7,3.436,3.436,0,0,1,1.976,2.143A3.725,3.725,0,0,1,3.187,39.7a3.456,3.456,0,0,1-.473,1.726,3.532,3.532,0,0,1-2.032,1.7,3.19,3.19,0,0,1-1.169.167,3.557,3.557,0,0,1-1.447-.306,13.324,13.324,0,0,0-5.232-1.364,3.878,3.878,0,0,0-2.115.5,1.525,1.525,0,0,0-.779,1.336v.111a1.317,1.317,0,0,0,.348.877,3.827,3.827,0,0,0,1.2.821,14.253,14.253,0,0,0,1.475.64l1.962.7.946.306q1.559.529,2.686.988A18.1,18.1,0,0,1,1,49.148a9.321,9.321,0,0,1,2.129,1.684,7.678,7.678,0,0,1,1.364,2.227,7.6,7.6,0,0,1,.557,2.95v.111a9.005,9.005,0,0,1-3.089,7.264Q-1.127,66-6.61,66a20.52,20.52,0,0,1-9.825-2.5A3.53,3.53,0,0,1-18.272,61.157Zm29.029.529V40.84a4.3,4.3,0,0,1,4.314-4.314,4.3,4.3,0,0,1,4.314,4.314V61.686A4.277,4.277,0,0,1,15.071,66a4.277,4.277,0,0,1-4.314-4.314Zm1.28-29.864a4.132,4.132,0,0,1-1.252-3.034,4.178,4.178,0,0,1,1.252-3.048,4.267,4.267,0,0,1,6.067,0,4.178,4.178,0,0,1,1.252,3.048,4.276,4.276,0,0,1-4.286,4.286A4.132,4.132,0,0,1,12.037,31.822ZM25.063,49.329v-.111a15.7,15.7,0,0,1,1.127-6.026A12.584,12.584,0,0,1,29.2,38.7a13.712,13.712,0,0,1,9.365-3.674,7.54,7.54,0,0,1,.779.056l-.028-.028A11.877,11.877,0,0,1,46.6,37.695a1.6,1.6,0,0,0,1.336.334,1.9,1.9,0,0,0,1.2-.779,4.059,4.059,0,0,1,2.032-1.475,3.95,3.95,0,0,1,1.141-.167,4.679,4.679,0,0,1,1.614.306,4.6,4.6,0,0,1,2.254,1.879,5.338,5.338,0,0,1,.835,2.908V59.125q0,8.1-3.869,11.968-4.091,4.091-13.109,4.091a29.843,29.843,0,0,1-9.908-1.642,3.645,3.645,0,0,1-2.366-3.312,3.487,3.487,0,0,1,.334-1.475,3.315,3.315,0,0,1,1.865-1.781,3.469,3.469,0,0,1,2.588,0,19.661,19.661,0,0,0,7.264,1.336q5.038,0,7.125-2.728a2.079,2.079,0,0,0,.32-1.6,1.951,1.951,0,0,0-.988-1.266,1.89,1.89,0,0,0-1.7-.139,17.8,17.8,0,0,1-6.012.918,13.8,13.8,0,0,1-5.107-.96,13.256,13.256,0,0,1-4.3-2.728,12.719,12.719,0,0,1-2.978-4.481A15.659,15.659,0,0,1,25.063,49.329Zm8.934,0a6.335,6.335,0,0,0,2.018,4.857,7.127,7.127,0,0,0,5.052,1.879,7.166,7.166,0,0,0,5.079-1.906,6.316,6.316,0,0,0,2.046-4.829v-.111a6.316,6.316,0,0,0-2.046-4.829,7.166,7.166,0,0,0-5.079-1.906,7.1,7.1,0,0,0-5.052,1.893A6.346,6.346,0,0,0,34,49.217ZM62.664,61.686V39.921a4.277,4.277,0,0,1,4.314-4.314,4.082,4.082,0,0,1,3.479,1.753,1.791,1.791,0,0,0,1.392.724,2,2,0,0,0,1.531-.529A10.225,10.225,0,0,1,80.2,35.023a9.716,9.716,0,0,1,7.6,3.02q2.728,3.02,2.728,8.28V61.686a4.314,4.314,0,1,1-8.628,0V49.05a6.9,6.9,0,0,0-1.364-4.62,4.791,4.791,0,0,0-3.841-1.586,5.061,5.061,0,0,0-3.952,1.6,6.64,6.64,0,0,0-1.447,4.606V61.686a4.314,4.314,0,1,1-8.628,0Z" transform="translate(408.579 118.104)" fill="#77b8e8"/>
    <g transform="matrix(1, 0, 0, 1, 258.41, 52.3)" filter="url(#Path_14)">
      <path id="Path_14-2" data-name="Path 14" d="M-124.173-4.453v-21.57a4.266,4.266,0,0,1,1.322-3.145,4.334,4.334,0,0,1,3.159-1.308,4.288,4.288,0,0,1,3.145,1.308,4.288,4.288,0,0,1,1.308,3.145v.918a11.135,11.135,0,0,1,4.731-5.817,3.514,3.514,0,0,1,1.7-.473,3.519,3.519,0,0,1,1.837.557,3.4,3.4,0,0,1,1.753,3.089v.863a4.673,4.673,0,0,1-.988,2.908,4.928,4.928,0,0,1-2.574,1.767,8.779,8.779,0,0,0-2.282,1.044,9.578,9.578,0,0,0-2.073,1.879,8.336,8.336,0,0,0-1.573,3.145,15.75,15.75,0,0,0-.529,4.286v7.4a4.288,4.288,0,0,1-1.308,3.145A4.288,4.288,0,0,1-119.692,0a4.334,4.334,0,0,1-3.159-1.308A4.266,4.266,0,0,1-124.173-4.453Zm23.351-10.381v-.111a15.047,15.047,0,0,1,1.225-6,15.065,15.065,0,0,1,3.34-4.912,15.773,15.773,0,0,1,5.121-3.284,16.8,16.8,0,0,1,6.4-1.225,16.532,16.532,0,0,1,8.183,2.046,14.93,14.93,0,0,1,5.733,5.552,14.947,14.947,0,0,1,2.06,7.709v.111a15.047,15.047,0,0,1-1.225,6,15.225,15.225,0,0,1-3.34,4.926,15.653,15.653,0,0,1-5.121,3.3A16.8,16.8,0,0,1-84.846.5a16.532,16.532,0,0,1-8.183-2.046,14.9,14.9,0,0,1-5.733-5.566A15.021,15.021,0,0,1-100.822-14.834Zm8.294-.111a8.266,8.266,0,0,0,2.2,5.775,7.243,7.243,0,0,0,5.594,2.407A7.17,7.17,0,0,0-79.126-9.1a8.266,8.266,0,0,0,2.1-5.733v-.111a8.237,8.237,0,0,0-2.213-5.775,7.286,7.286,0,0,0-5.608-2.407,7.128,7.128,0,0,0-5.594,2.338,8.3,8.3,0,0,0-2.087,5.733Zm28.917-.083v-.111a15.97,15.97,0,0,1,1.2-6.137,15.739,15.739,0,0,1,3.284-5.052,15.2,15.2,0,0,1,5.065-3.4,16.342,16.342,0,0,1,6.4-1.252,16.371,16.371,0,0,1,8.6,2.115,3.6,3.6,0,0,1,1.781,2.783q.028.278.028.557a3.675,3.675,0,0,1-1.058,2.616,3.7,3.7,0,0,1-2.366,1.2,2.016,2.016,0,0,1-.473,0,4.04,4.04,0,0,1-2.143-.612,8.231,8.231,0,0,0-4.425-1.225,6.676,6.676,0,0,0-5.274,2.435,8.666,8.666,0,0,0-2.1,5.859v.111a8.685,8.685,0,0,0,2.129,5.97,7.093,7.093,0,0,0,5.58,2.407A8.485,8.485,0,0,0-42.764-8.1a3.6,3.6,0,0,1,2.06-.64,2.2,2.2,0,0,1,.362.028,3.387,3.387,0,0,1,2.227,1.03l.056.083A3.516,3.516,0,0,1-37-5.065a3.192,3.192,0,0,1-.028.39,3.562,3.562,0,0,1-1.559,2.7A15.6,15.6,0,0,1-47.8.668a15.905,15.905,0,0,1-8.113-2.1,15.029,15.029,0,0,1-5.664-5.692A15.771,15.771,0,0,1-63.61-15.029ZM-32.438-9.3v-.111a8.46,8.46,0,0,1,3.312-7.264q3.312-2.449,8.934-2.449a24.863,24.863,0,0,1,3.98.334,3.416,3.416,0,0,0,.612.056,2.346,2.346,0,0,0,1.308-.362,1.7,1.7,0,0,0,.918-1.28,2.258,2.258,0,0,0-.557-1.614,6.886,6.886,0,0,0-5.344-1.948,21.833,21.833,0,0,0-5.2.64,3.541,3.541,0,0,1-.946.139,3.414,3.414,0,0,1-1.67-.445,3.443,3.443,0,0,1-1.67-2.032,3.6,3.6,0,0,1-.195-1.141,4.009,4.009,0,0,1,.417-1.614,3.379,3.379,0,0,1,2.115-1.781,28.236,28.236,0,0,1,8.377-1.141q6.847,0,10.27,3.423Q-4.495-24.6-4.495-18.2V-4.425A3.755,3.755,0,0,1-5.608-1.684,3.686,3.686,0,0,1-8.336-.557h-1.2A2.889,2.889,0,0,1-12.26-2.143a1.2,1.2,0,0,0-.932-.612,1.455,1.455,0,0,0-1.127.306A11.907,11.907,0,0,1-22,0,11.271,11.271,0,0,1-29.46-2.477,8.391,8.391,0,0,1-32.438-9.3Zm8.906-.668a3.428,3.428,0,0,0,1.225,2.895,4,4,0,0,0,2.533.779,4.752,4.752,0,0,0,.724-.056A6.735,6.735,0,0,0-15.21-7.863a5.266,5.266,0,0,0,1.781-3.075,2.3,2.3,0,0,0,.056-.5,1.986,1.986,0,0,0-1.085-1.753,6.314,6.314,0,0,0-3.4-.751,7.456,7.456,0,0,0-4.189,1A3.354,3.354,0,0,0-23.532-9.964Zm25.8-13.888a3.613,3.613,0,0,1-1.058-2.616,3.567,3.567,0,0,1,1.058-2.6A2.974,2.974,0,0,1,4.3-30.142a1.758,1.758,0,0,0,1.266-.529,1.691,1.691,0,0,0,.543-1.252q0-5.065,2.421-7.487Q10.924-41.8,15.516-41.8a24.887,24.887,0,0,1,3.089.195,3.33,3.33,0,0,1,2.171,1.169,3.472,3.472,0,0,1,.863,2.338,3.315,3.315,0,0,1-1.113,2.533,3.5,3.5,0,0,1-2.533,1.03h-.529a2.683,2.683,0,0,0-1.962.751,2.476,2.476,0,0,0-.765,1.837,1.731,1.731,0,0,0,.529,1.294,1.768,1.768,0,0,0,1.28.515h1.642a3.543,3.543,0,0,1,2.6,1.072,3.543,3.543,0,0,1,1.072,2.6,3.589,3.589,0,0,1-1.072,2.616,3.52,3.52,0,0,1-2.6,1.085H16.546a1.744,1.744,0,0,0-1.28.529,1.744,1.744,0,0,0-.529,1.28v5.65h-.028V-4.314a4.141,4.141,0,0,1-1.266,3.062A4.178,4.178,0,0,1,10.4,0,4.132,4.132,0,0,1,7.362-1.252,4.164,4.164,0,0,1,6.109-4.314v-16.7a1.792,1.792,0,0,0-.543-1.239A1.721,1.721,0,0,0,4.3-22.767,2.962,2.962,0,0,1,2.268-23.852ZM27.54-14.834v-.111a15.047,15.047,0,0,1,1.225-6,15.065,15.065,0,0,1,3.34-4.912,15.773,15.773,0,0,1,5.121-3.284,16.8,16.8,0,0,1,6.4-1.225,16.532,16.532,0,0,1,8.183,2.046,14.93,14.93,0,0,1,5.733,5.552,14.947,14.947,0,0,1,2.06,7.709v.111a15.047,15.047,0,0,1-1.225,6,15.225,15.225,0,0,1-3.34,4.926,15.653,15.653,0,0,1-5.121,3.3A16.8,16.8,0,0,1,43.515.5a16.532,16.532,0,0,1-8.183-2.046A14.9,14.9,0,0,1,29.6-7.111,15.021,15.021,0,0,1,27.54-14.834Zm8.294-.111a8.266,8.266,0,0,0,2.2,5.775,7.243,7.243,0,0,0,5.594,2.407A7.17,7.17,0,0,0,49.235-9.1a8.266,8.266,0,0,0,2.1-5.733v-.111a8.237,8.237,0,0,0-2.213-5.775,7.286,7.286,0,0,0-5.608-2.407,7.128,7.128,0,0,0-5.594,2.338,8.3,8.3,0,0,0-2.087,5.733ZM65.308-4.453v-21.57a4.266,4.266,0,0,1,1.322-3.145,4.334,4.334,0,0,1,3.159-1.308,4.288,4.288,0,0,1,3.145,1.308,4.288,4.288,0,0,1,1.308,3.145v.918a11.135,11.135,0,0,1,4.731-5.817,3.514,3.514,0,0,1,1.7-.473,3.519,3.519,0,0,1,1.837.557,3.4,3.4,0,0,1,1.753,3.089v.863a4.673,4.673,0,0,1-.988,2.908A4.928,4.928,0,0,1,80.7-22.21a8.779,8.779,0,0,0-2.282,1.044,9.578,9.578,0,0,0-2.073,1.879,8.336,8.336,0,0,0-1.573,3.145,15.75,15.75,0,0,0-.529,4.286v7.4a4.288,4.288,0,0,1-1.308,3.145A4.288,4.288,0,0,1,69.789,0,4.334,4.334,0,0,1,66.63-1.308,4.266,4.266,0,0,1,65.308-4.453ZM89.717-24.1a3.613,3.613,0,0,1-1.058-2.616,3.567,3.567,0,0,1,1.058-2.6,2.974,2.974,0,0,1,2.032-1.072,1.722,1.722,0,0,0,1.28-.543,1.79,1.79,0,0,0,.529-1.294v-4.982a4.132,4.132,0,0,1,1.252-3.034A4.164,4.164,0,0,1,97.871-41.5a4.164,4.164,0,0,1,3.062,1.252,4.132,4.132,0,0,1,1.252,3.034v4.982a1.79,1.79,0,0,0,.529,1.294,1.722,1.722,0,0,0,1.28.543h1.642a3.543,3.543,0,0,1,2.6,1.072,3.543,3.543,0,0,1,1.072,2.6,3.543,3.543,0,0,1-1.072,2.6,3.543,3.543,0,0,1-2.6,1.072h-1.642a1.722,1.722,0,0,0-1.28.543,1.79,1.79,0,0,0-.529,1.294v11.161q0,2.95,2.755,2.95h.724a3.574,3.574,0,0,1,2.421.974A3.433,3.433,0,0,1,109.2-3.535a3.582,3.582,0,0,1-.64,2.073,3.312,3.312,0,0,1-1.7,1.294A14.356,14.356,0,0,1,102.408.5,13.22,13.22,0,0,1,98.79.056a7.433,7.433,0,0,1-2.769-1.461A6.255,6.255,0,0,1,94.184-4.23a13.529,13.529,0,0,1-.626-4.4v-12.58a1.79,1.79,0,0,0-.529-1.294,1.722,1.722,0,0,0-1.28-.543A2.988,2.988,0,0,1,89.717-24.1ZM116.324-1.392a4.366,4.366,0,0,1-1.336-3.2,4.366,4.366,0,0,1,1.336-3.2,4.366,4.366,0,0,1,3.2-1.336h.111a4.366,4.366,0,0,1,3.2,1.336,4.366,4.366,0,0,1,1.336,3.2,4.366,4.366,0,0,1-1.336,3.2,4.366,4.366,0,0,1-3.2,1.336h-.111A4.366,4.366,0,0,1,116.324-1.392ZM-90.552,50.859v-.111a18.887,18.887,0,0,1,1.141-6.721,13.81,13.81,0,0,1,3.089-4.968A13.776,13.776,0,0,1-81.9,36.067a13.269,13.269,0,0,1,5.2-1.044,12.007,12.007,0,0,1,3.924.612,4.379,4.379,0,0,0,1.336.223A3.84,3.84,0,0,0-68.982,35a4.2,4.2,0,0,0,1.753-3.507V29.317a4.787,4.787,0,0,1,1.239-3.409,4.043,4.043,0,0,1,3.075-1.322,4.164,4.164,0,0,1,3.062,1.252A4.164,4.164,0,0,1-58.6,28.9V61.463a4.459,4.459,0,0,1-1.336,3.229A4.1,4.1,0,0,1-62.97,66h-.139a3.848,3.848,0,0,1-2.728-1.252,3.209,3.209,0,0,0-1.948-1,2.569,2.569,0,0,0-.362-.028,2.655,2.655,0,0,0-1.67.584,10.856,10.856,0,0,1-6.875,2.254,13.1,13.1,0,0,1-5.163-1.044,13.93,13.93,0,0,1-4.411-2.978,13.95,13.95,0,0,1-3.117-4.968A18.514,18.514,0,0,1-90.552,50.859Zm8.628,0a8.555,8.555,0,0,0,2.157,6.04,6.9,6.9,0,0,0,5.274,2.338A6.83,6.83,0,0,0-69.26,56.9a8.589,8.589,0,0,0,2.143-6.04v-.111a8.64,8.64,0,0,0-2.143-6.053,6.812,6.812,0,0,0-5.232-2.352,6.9,6.9,0,0,0-5.274,2.338,8.594,8.594,0,0,0-2.157,6.067Zm28.973-.195v-.111A16.342,16.342,0,0,1-51.1,42.83a14.389,14.389,0,0,1,5.232-5.622,14.077,14.077,0,0,1,7.584-2.1,15.466,15.466,0,0,1,5.441.918,12.106,12.106,0,0,1,4.175,2.547A14.446,14.446,0,0,1-25.842,42.3a16.8,16.8,0,0,1,1.614,4.634,8.318,8.318,0,0,1,.139,1.141,5.132,5.132,0,0,1-1.28,3.368,5.221,5.221,0,0,1-4.2,1.976H-40.649a2.335,2.335,0,0,0-1.781.779,2.263,2.263,0,0,0-.668,1.559,2.565,2.565,0,0,0,.807,1.809,7.148,7.148,0,0,0,4.954,1.67,9.345,9.345,0,0,0,5.26-1.5,3.183,3.183,0,0,1,1.781-.529h.306a3.367,3.367,0,0,1,1.976.863l.056.056A3.2,3.2,0,0,1-26.844,60.6a3.019,3.019,0,0,1-1.28,2.561A15.249,15.249,0,0,1-37.448,66a16.32,16.32,0,0,1-7.946-1.92,14.007,14.007,0,0,1-5.539-5.441A15.746,15.746,0,0,1-52.95,50.665ZM-42.9,46.072q.5,1.7,3.117,1.837h3.2q2.7,0,3.2-1.7a2.363,2.363,0,0,0,.111-.7,3.477,3.477,0,0,0-.974-2.227,5.392,5.392,0,0,0-4.008-1.865,4.733,4.733,0,0,0-3.813,1.726,3.424,3.424,0,0,0-.946,2.2A2.449,2.449,0,0,0-42.9,46.072Zm24.631,15.085a4.485,4.485,0,0,1-.111-.974,3.511,3.511,0,0,1,.557-1.893,3.492,3.492,0,0,1,2.115-1.531,3.632,3.632,0,0,1,.974-.139,3.219,3.219,0,0,1,1.586.417,14.259,14.259,0,0,0,6.763,1.948q3.312,0,3.312-1.976V56.9a1.42,1.42,0,0,0-.334-.932A3.157,3.157,0,0,0-4.537,55.2q-.793-.362-1.447-.584T-7.946,54q-.362-.111-1.141-.334a21.514,21.514,0,0,1-4.008-1.559,13.159,13.159,0,0,1-2.658-1.753,6.968,6.968,0,0,1-1.531-1.948,7.173,7.173,0,0,1-.738-1.976,10.757,10.757,0,0,1-.167-1.976v-.111A8.856,8.856,0,0,1-15.1,37.305,11.942,11.942,0,0,1-7,34.633a20.209,20.209,0,0,1,7.988,1.7,3.436,3.436,0,0,1,1.976,2.143A3.725,3.725,0,0,1,3.187,39.7a3.456,3.456,0,0,1-.473,1.726,3.532,3.532,0,0,1-2.032,1.7,3.19,3.19,0,0,1-1.169.167,3.557,3.557,0,0,1-1.447-.306,13.324,13.324,0,0,0-5.232-1.364,3.878,3.878,0,0,0-2.115.5,1.525,1.525,0,0,0-.779,1.336v.111a1.317,1.317,0,0,0,.348.877,3.827,3.827,0,0,0,1.2.821,14.253,14.253,0,0,0,1.475.64l1.962.7.946.306q1.559.529,2.686.988A18.1,18.1,0,0,1,1,49.148a9.321,9.321,0,0,1,2.129,1.684,7.678,7.678,0,0,1,1.364,2.227,7.6,7.6,0,0,1,.557,2.95v.111a9.005,9.005,0,0,1-3.089,7.264Q-1.127,66-6.61,66a20.52,20.52,0,0,1-9.825-2.5A3.53,3.53,0,0,1-18.272,61.157Zm29.029.529V40.84a4.3,4.3,0,0,1,4.314-4.314,4.3,4.3,0,0,1,4.314,4.314V61.686A4.277,4.277,0,0,1,15.071,66a4.277,4.277,0,0,1-4.314-4.314Zm1.28-29.864a4.132,4.132,0,0,1-1.252-3.034,4.178,4.178,0,0,1,1.252-3.048,4.267,4.267,0,0,1,6.067,0,4.178,4.178,0,0,1,1.252,3.048,4.276,4.276,0,0,1-4.286,4.286A4.132,4.132,0,0,1,12.037,31.822ZM25.063,49.329v-.111a15.7,15.7,0,0,1,1.127-6.026A12.584,12.584,0,0,1,29.2,38.7a13.712,13.712,0,0,1,9.365-3.674,7.54,7.54,0,0,1,.779.056l-.028-.028A11.877,11.877,0,0,1,46.6,37.695a1.6,1.6,0,0,0,1.336.334,1.9,1.9,0,0,0,1.2-.779,4.059,4.059,0,0,1,2.032-1.475,3.95,3.95,0,0,1,1.141-.167,4.679,4.679,0,0,1,1.614.306,4.6,4.6,0,0,1,2.254,1.879,5.338,5.338,0,0,1,.835,2.908V59.125q0,8.1-3.869,11.968-4.091,4.091-13.109,4.091a29.843,29.843,0,0,1-9.908-1.642,3.645,3.645,0,0,1-2.366-3.312,3.487,3.487,0,0,1,.334-1.475,3.315,3.315,0,0,1,1.865-1.781,3.469,3.469,0,0,1,2.588,0,19.661,19.661,0,0,0,7.264,1.336q5.038,0,7.125-2.728a2.079,2.079,0,0,0,.32-1.6,1.951,1.951,0,0,0-.988-1.266,1.89,1.89,0,0,0-1.7-.139,17.8,17.8,0,0,1-6.012.918,13.8,13.8,0,0,1-5.107-.96,13.256,13.256,0,0,1-4.3-2.728,12.719,12.719,0,0,1-2.978-4.481A15.659,15.659,0,0,1,25.063,49.329Zm8.934,0a6.335,6.335,0,0,0,2.018,4.857,7.127,7.127,0,0,0,5.052,1.879,7.166,7.166,0,0,0,5.079-1.906,6.316,6.316,0,0,0,2.046-4.829v-.111a6.316,6.316,0,0,0-2.046-4.829,7.166,7.166,0,0,0-5.079-1.906,7.1,7.1,0,0,0-5.052,1.893A6.346,6.346,0,0,0,34,49.217ZM62.664,61.686V39.921a4.277,4.277,0,0,1,4.314-4.314,4.082,4.082,0,0,1,3.479,1.753,1.791,1.791,0,0,0,1.392.724,2,2,0,0,0,1.531-.529A10.225,10.225,0,0,1,80.2,35.023a9.716,9.716,0,0,1,7.6,3.02q2.728,3.02,2.728,8.28V61.686a4.314,4.314,0,1,1-8.628,0V49.05a6.9,6.9,0,0,0-1.364-4.62,4.791,4.791,0,0,0-3.841-1.586,5.061,5.061,0,0,0-3.952,1.6,6.64,6.64,0,0,0-1.447,4.606V61.686a4.314,4.314,0,1,1-8.628,0Z" transform="translate(154.17 68.8)" fill="#fff"/>
    </g>
  </g>
</svg>
